{
    "asset" : {
        "generator" : "Khronos glTF Blender I/O v0.9.35",
        "version" : "2.0"
    },
    "scene" : 0,
    "scenes" : [
        {
            "name" : "Scene",
            "nodes" : [
                0
            ]
        }
    ],
    "nodes" : [
        {
            "mesh" : 0,
            "name" : "uselessMug",
            "scale" : [
                0.5,
                0.5,
                0.5
            ]
        }
    ],
    "materials" : [
        {
            "doubleSided" : true,
            "name" : "mug",
            "normalTexture" : {
                "index" : 0,
                "texCoord" : 0
            },
            "pbrMetallicRoughness" : {
                "baseColorTexture" : {
                    "index" : 1,
                    "texCoord" : 0
                },
                "metallicFactor" : 0,
                "metallicRoughnessTexture" : {
                    "index" : 2,
                    "texCoord" : 0
                }
            }
        }
    ],
    "meshes" : [
        {
            "name" : "Cylinder.002",
            "primitives" : [
                {
                    "attributes" : {
                        "POSITION" : 0,
                        "NORMAL" : 1,
                        "TEXCOORD_0" : 2
                    },
                    "indices" : 3,
                    "material" : 0
                }
            ]
        }
    ],
    "textures" : [
        {
            "source" : 0
        },
        {
            "source" : 1
        },
        {
            "source" : 2
        }
    ],
    "images" : [
        {
            "bufferView" : 4,
            "mimeType" : "image/png",
            "name" : "mugNormal"
        },
        {
            "bufferView" : 5,
            "mimeType" : "image/png",
            "name" : "mugColor"
        },
        {
            "bufferView" : 6,
            "mimeType" : "image/png",
            "name" : "mugRoughness"
        }
    ],
    "accessors" : [
        {
            "bufferView" : 0,
            "componentType" : 5126,
            "count" : 2322,
            "max" : [
                1.4667761325836182,
                3.3224422931671143,
                0.8425002694129944
            ],
            "min" : [
                -0.815201461315155,
                0.7586654424667358,
                -0.8424997925758362
            ],
            "type" : "VEC3"
        },
        {
            "bufferView" : 1,
            "componentType" : 5126,
            "count" : 2322,
            "type" : "VEC3"
        },
        {
            "bufferView" : 2,
            "componentType" : 5126,
            "count" : 2322,
            "type" : "VEC2"
        },
        {
            "bufferView" : 3,
            "componentType" : 5123,
            "count" : 10704,
            "type" : "SCALAR"
        }
    ],
    "bufferViews" : [
        {
            "buffer" : 0,
            "byteLength" : 27864,
            "byteOffset" : 0
        },
        {
            "buffer" : 0,
            "byteLength" : 27864,
            "byteOffset" : 27864
        },
        {
            "buffer" : 0,
            "byteLength" : 18576,
            "byteOffset" : 55728
        },
        {
            "buffer" : 0,
            "byteLength" : 21408,
            "byteOffset" : 74304
        },
        {
            "buffer" : 0,
            "byteLength" : 908112,
            "byteOffset" : 95712
        },
        {
            "buffer" : 0,
            "byteLength" : 28728,
            "byteOffset" : 1003824
        },
        {
            "buffer" : 0,
            "byteLength" : 1170141,
            "byteOffset" : 1032552
        }
    ],
    "buffers" : [
        {
            "byteLength" : 2202696,
            "uri" : "data:application/octet-stream;base64,"
        }
    ]
}
